<?xml version="1.0" encoding="UTF-8"?>
<svg enable-background="new 0 0 600 600" version="1.1" viewBox="0 0 600 600" xml:space="preserve" xmlns="http://www.w3.org/2000/svg">
<g transform="translate(-138 -657.47)">
	<path d="m290.3 940.5h296.6c40.8-1.8 75.4 29.7 77.4 70.4v176c-2 40.8-36.6 72.2-77.4 70.4h-296.6c-40.8 1.8-75.4-29.7-77.4-70.4v-176c2-40.7 36.6-72.2 77.4-70.4z"/>
	<path d="m412.3 666.1c15.3-11.5 36.1-11.5 51.4 0l188.6 142.4c19.3 14.5 23.5 42.3 9.3 62.1-8.1 11.3-21 18-34.7 18.1h-377.5c-23.9 0-43.4-19.8-43.4-44.4 0-14.2 6.6-27.5 17.7-35.8l188.6-142.4z"/>
</g>
</svg>
