<?xml version="1.0" encoding="UTF-8"?>
<svg enable-background="new 0 0 600 600" version="1.1" viewBox="0 0 600 600" xml:space="preserve" xmlns="http://www.w3.org/2000/svg">
<path d="m520.7 108.5c-51.2-51.2-119.2-79.3-191.5-79.3-64.7 0-127.4 23.2-176.4 65.3-48.1 41.3-80.2 98.2-90.7 160.4h-29.8c-24.8 0-40.3 26.9-27.9 48.3l85.6 148.2c12.4 21.5 43.4 21.5 55.8 0l85.6-148.2c12.4-21.5-3.1-48.3-27.9-48.3h-28.5c8.7-29.6 25.9-56.4 49.6-76.8 29.1-25 66.2-38.7 104.6-38.7 88.6 0 160.6 72.1 160.6 160.6 0 88.6-72.1 160.6-160.6 160.6-30.4 0-55.1 24.7-55.1 55.1s24.7 55.1 55.1 55.1c72.3 0 140.4-28.2 191.5-79.3s79.3-119.2 79.3-191.5-28.2-140.4-79.3-191.5z"/>
</svg>
