<?xml version="1.0" encoding="UTF-8"?>
<svg enable-background="new 0 0 600 600" version="1.1" viewBox="0 0 600 600" xml:space="preserve" xmlns="http://www.w3.org/2000/svg">
<style type="text/css">
	.st4{opacity:0.6;fill:#679FBE;enable-background:new    ;}
	.st5{opacity:0.6;fill:url(#a);enable-background:new    ;}
	.st6{opacity:0.6;fill:#3C3C3C;enable-background:new    ;}
	.st7{fill:#FFFFFF;}
</style>
<path class="st4" d="m314.3 148.7c-122.5 15.9-190.1 80.3-177.8 183.6s173.5 137.6 236.1 102.2 45.9-125.3 77.6-156.2-13.5-145.4-135.9-129.6z"/>
<linearGradient id="a" x1="2.1889" x2="2.1889" y1="599.37" y2="597.47" gradientTransform="matrix(206.96 0 0 -148.37 -168.04 89077)" gradientUnits="userSpaceOnUse">
	<stop stop-color="#394C59" offset="0"/>
	<stop stop-color="#38617E" offset="1"/>
</linearGradient>
<path class="st5" d="m221.2 162.7c-101 39.1-206.8 192.6-60 241s261.3 22 277.2-38.4 87.6-140.5 0-168-116.2-73.7-217.2-34.6z"/>
<path class="st6" d="m302.9 158.2c-113.5-44.3-228.8 82-164.5 188.3s237.8 92.6 300.4 57.3 27.2-89.1 0-142.7-22.4-58.6-135.9-102.9z"/>

	<path class="st7" d="m160.6 295.8c-2-2.1-3.9-3.7-5.7-4.8-2-1.4-4.2-2.6-6.5-3.8-1.6-0.8-3.3-1.8-4.8-2.8-1.8-1.1-3-2.2-4-3.4l-0.1-0.1c-1.1-1.1-1.9-2.6-2.7-4.3-0.6-1.6-1-3.5-1-5.8 0-2.6 0.4-4.8 1.2-6.6 0.8-1.9 1.8-3.4 2.9-4.5s2.5-2 4-2.6 3.1-0.9 4.6-0.9c2.3 0 4.5 0.4 6.5 1.3 1.7 0.8 3.3 2.1 4.5 3.7 0.3 0.3 0.7 0.6 1.1 0.6s0.9-0.2 1.2-0.5l3.6-4.1c0.5-0.5 0.5-1.4 0-1.9-2-2.4-4.3-4.2-7.1-5.4-3-1.3-6.4-1.9-10.2-1.9-2.7 0-5.3 0.5-7.9 1.4s-4.9 2.4-6.8 4.3c-2 1.9-3.6 4.2-4.8 7.2-1.2 2.7-1.7 6-1.7 10 0 3.2 0.5 6 1.4 8.7 0.9 2.4 2.1 4.6 3.7 6.4 1.5 1.8 3.2 3.3 5.3 4.8 2 1.3 4.1 2.6 6.3 3.6 2.1 1 3.8 2 5.2 3 1.8 1.2 3.2 2.4 4.3 3.6 1.2 1.3 2.2 2.8 3 4.5 0.8 1.8 1.2 3.7 1.2 5.9 0 4.7-1.2 8.4-3.6 10.9s-5.4 3.7-8.9 3.7c-2.7 0-5.3-0.7-8-2-2.3-1.2-4.2-2.8-5.8-4.8-0.3-0.3-0.7-0.6-1.1-0.6s-0.9 0.2-1.2 0.5l-3.6 4.1c-0.5 0.5-0.5 1.4-0.1 1.9 2.1 2.7 4.9 4.9 8.1 6.5 3.5 1.8 7.3 2.7 11.7 2.7 3 0 5.7-0.5 8.3-1.6 2.6-1 4.9-2.6 6.8-4.6 2.1-2.2 3.5-4.5 4.5-7.3 1.1-2.8 1.6-6 1.6-9.8 0-3.4-0.5-6.3-1.6-8.9-0.9-2.4-2.2-4.4-3.8-6.3z"/>
	<path class="st7" d="m237.8 260.2c-2.3-3.7-5.2-6.7-8.6-8.9-3.3-2.1-7.2-3.2-11.6-3.2-4.5 0-8.4 1-11.9 3.2s-6.4 5.2-8.6 8.9c-2.4 3.9-4.2 8.5-5.3 13.6-1.2 5.4-1.8 11.1-1.8 17.4 0 6.4 0.6 12.3 1.8 17.5 1.2 5.3 3 9.9 5.4 13.6 2.3 3.7 5.2 6.8 8.7 9 3.3 2.1 7.2 3.2 11.6 3.2s8.3-1.1 11.6-3.2c3.4-2.2 6.2-5.1 8.6-9s4.2-8.5 5.4-13.7c1.2-5.3 1.8-11.2 1.8-17.5s-0.6-12.2-1.8-17.4c-1.3-5.3-3-9.8-5.3-13.5zm-20.3-3.7c2.9 0 5.4 0.9 7.6 2.7 2.2 1.7 4 4.1 5.6 7.3 1.5 2.8 2.6 6.4 3.4 11.1 0.8 4.2 1.2 8.9 1.2 13.8 0.2 4.5-0.1 9.1-1 13.6-0.8 4.6-2 8.2-3.5 11.2-1.4 3.1-3.4 5.6-5.6 7.4-2.3 1.8-4.9 2.7-7.8 2.7-3.1 0-5.7-0.9-7.9-2.7s-4.2-4.3-5.6-7.4c-1.5-3.2-2.7-7-3.5-11.2s-1.2-8.9-1.2-13.7 0.4-9.5 1.2-13.7c0.8-4.5 2-8.1 3.5-11.1 1.4-2.9 3.3-5.4 5.6-7.3 2.4-1.8 5.1-2.7 8-2.7z"/>
	<path class="st7" d="m318.3 250.1h-5.3c-0.8 0-1.5 0.7-1.5 1.5v65.4l-27.4-66c-0.2-0.6-0.8-0.9-1.4-0.9h-8.3c-0.8 0-1.5 0.7-1.5 1.5v79.6c0 0.8 0.7 1.5 1.5 1.5h5.6c0.8 0 1.5-0.7 1.5-1.5v-65.1l27.5 65.7c0.2 0.6 0.8 0.9 1.4 0.9h7.9c0.8 0 1.5-0.7 1.5-1.5v-79.6c0-0.8-0.7-1.5-1.5-1.5z"/>
	<path class="st7" d="m463.8 250.1h-5.4c-0.8 0-1.5 0.7-1.5 1.5v65.1l-27.3-65.7c-0.2-0.6-0.8-0.9-1.4-0.9h-8.4c-0.8 0-1.5 0.7-1.5 1.5v79.6c0 0.8 0.7 1.5 1.5 1.5h5.6c0.8 0 1.5-0.7 1.5-1.5v-65.4l27.6 65.9c0.2 0.6 0.8 0.9 1.4 0.9h7.9c0.8 0 1.5-0.7 1.5-1.5v-79.6c0-0.7-0.7-1.4-1.5-1.4z"/>
	<path class="st7" d="m537.4 318.2c-0.3-0.3-0.7-0.5-1.2-0.4-0.4 0-0.8 0.3-1.1 0.6-1.7 2.4-3.4 4.1-5.4 5.5-2.3 1.6-4.8 2.4-7.6 2.4-3.3 0-6.1-0.9-8.5-2.7-2.6-1.9-4.5-4.4-6.1-7.6-1.6-3-2.8-6.7-3.6-11-0.9-4.7-1.3-9.1-1.3-13.5 0-4.8 0.4-9.4 1.2-13.6 0.8-4.4 2-8.1 3.6-11.2 1.8-3.3 3.8-5.8 6.1-7.4 2.5-1.8 5.4-2.7 8.5-2.7 2.5 0 4.9 0.7 7.2 1.9 2 1.1 3.8 2.8 5.4 4.9 0.3 0.4 0.7 0.6 1.1 0.6s0.9-0.1 1.2-0.4l3.8-3.9c0.5-0.5 0.6-1.3 0.2-1.9-2.1-3.1-4.8-5.5-8-7.1-3.4-1.6-7.1-2.5-11-2.5-4.4 0-8.4 1.1-12 3.3-3.6 2.3-6.5 5.2-8.9 9.1-2.5 4-4.4 8.6-5.6 13.6-1.3 5.1-1.9 10.9-1.9 17.1 0 6.3 0.6 11.9 1.9 17 1.3 5.4 3.2 9.9 5.6 13.6 2.5 3.9 5.4 6.9 9 9.2s7.6 3.4 12.2 3.4c4.2 0 8-1 11.4-3 3.1-1.8 5.7-4.3 7.9-7.8 0.4-0.6 0.3-1.4-0.2-1.9l-3.9-3.6z"/>
	<path class="st7" d="m375.6 251.2c-0.2-0.7-0.8-1.1-1.5-1.1h-9.4c-0.7 0-1.3 0.5-1.5 1.1l-20.2 79.6c-0.1 0.4 0 0.9 0.3 1.3s0.7 0.6 1.2 0.6h6.1c0.7 0 1.3-0.5 1.5-1.2l17.1-72.3 1.1 4.6 15.6 67.7c0.2 0.7 0.8 1.2 1.5 1.2h6.3c0.5 0 0.9-0.2 1.2-0.6s0.4-0.8 0.3-1.3l-19.6-79.6z"/>
	<path class="st7" d="m26.6 293.4c1.5-0.3 3-0.8 4.6-1.7 1.8-1 3.4-2.3 4.9-4 1.5-1.8 2.7-4 3.6-6.4 0.9-2.5 1.3-5.5 1.3-9.1 0-4.1-0.6-7.6-1.8-10.3-1.2-2.8-2.8-5.1-4.9-6.9s-4.3-3-6.9-3.7c-2.7-0.7-5.3-1.1-7.9-1.1h-18.5c-0.8 0-1.5 0.7-1.5 1.5v79.5c0 0.8 0.7 1.5 1.5 1.5h5.9c0.8 0 1.5-0.7 1.5-1.5v-73.1h9.9c1.9 0 3.6 0.2 5.2 0.7 1.7 0.5 3.2 1.3 4.4 2.3s2.3 2.6 3.1 4.4 1.2 4.2 1.2 7.1c0 4.8-1.2 8.5-3.6 11.1-2.3 2.5-5.4 3.8-9.2 3.9-0.8 0-1.4 0.7-1.4 1.5v5.3c0 0.2 0 0.4 0.1 0.5l14.4 36.8c0.2 0.6 0.8 1 1.4 1h6.4c0.5 0 1-0.2 1.2-0.7s0.3-0.9 0.1-1.4l-15-37.2z"/>
	<path class="st7" d="m599 324.4h-24.9v-66.1h23.7c0.8 0 1.5-0.7 1.5-1.5v-5.2c0-0.8-0.7-1.5-1.5-1.5h-30.8c-0.8 0-1.5 0.7-1.5 1.5v79.6c0 0.8 0.7 1.5 1.5 1.5h32c0.8 0 1.5-0.7 1.5-1.5v-5.3c0-0.8-0.7-1.5-1.5-1.5z"/>
	<path class="st7" d="m585.4 285.8c-0.8 0-1.5 0.7-1.5 1.5v4.9c0 0.8 0.7 1.5 1.5 1.5h10.8c0.8 0 1.5-0.7 1.5-1.5v-4.9c0-0.8-0.7-1.5-1.5-1.5h-10.8z"/>
	<path class="st7" d="m100.9 324.4h-24.9v-66.1h23.8c0.8 0 1.5-0.7 1.5-1.5v-5.2c0-0.8-0.7-1.5-1.5-1.5h-30.9c-0.8 0-1.5 0.7-1.5 1.5v79.6c0 0.8 0.7 1.5 1.5 1.5h32c0.8 0 1.5-0.7 1.5-1.5v-5.3c0-0.8-0.7-1.5-1.5-1.5z"/>
	<path class="st7" d="m87.3 285.8c-0.8 0-1.5 0.7-1.5 1.5v4.9c0 0.8 0.7 1.5 1.5 1.5h10.9c0.8 0 1.5-0.7 1.5-1.5v-4.9c0-0.8-0.7-1.5-1.5-1.5h-10.9z"/>

</svg>
