<?xml version="1.0" encoding="utf-8"?>
<!-- Generator: Adobe Illustrator 25.0.1, SVG Export Plug-In . SVG Version: 6.00 Build 0)  -->
<svg version="1.1" id="Ebene_1" xmlns="http://www.w3.org/2000/svg" xmlns:xlink="http://www.w3.org/1999/xlink" x="0px" y="0px"
	 viewBox="0 0 600 600" style="enable-background:new 0 0 600 600;" xml:space="preserve">
<style type="text/css">
	.st0{fill:#1ED760;}
	.st1{fill:#FFFFFF;}
</style>
<g id="Gruppe_85" transform="translate(-0.084 -0.308)">
	<circle id="Ellipse_11" class="st0" cx="300.1" cy="300.3" r="300"/>
	<g id="Gruppe_85-2" transform="translate(4.216 7.042)">
		<path id="Pfad_221" class="st1" d="M504.3,208.1c-3.7-2.4-92.1-59.4-251.7-59.4c-46.9-0.4-93.6,5.7-138.8,18.2l-2.2,0.6
			c-14.5,4.4-22.7,19.7-18.4,34.2c4.2,13.8,18.3,22,32.3,18.9l2.3-0.6c40.6-11.2,82.6-16.7,124.8-16.3c141.9,0,220.8,50,221.5,50.4
			c12.8,8.1,29.8,4.4,37.9-8.4c8-12.5,4.5-29.1-7.7-37.4L504.3,208.1z"/>
		<path id="Pfad_222" class="st1" d="M465.7,308.1c-67.1-38.1-143.3-57.1-220.4-54.9c-38.8-0.4-77.4,4.7-114.8,15.1l-3.3,0.9
			c-13.1,3.1-21.1,16.2-18,29.3c3.1,13.1,16.2,21.1,29.3,18c0.4-0.1,0.8-0.2,1.1-0.3l3.4-0.9c33.3-9.3,67.8-13.8,102.3-13.4
			c67.5-1.8,134.3,14.4,193.6,46.8c11.4,7.1,26.4,3.6,33.5-7.8C479.2,329.9,476.2,315.6,465.7,308.1L465.7,308.1z"/>
		<path id="Pfad_223" class="st1" d="M430.5,398.5c-52.7-33.3-114.3-50.1-176.6-48.1c-39.3,0.4-78.5,5-116.8,13.8
			c-10.2,2.3-16.6,12.5-14.3,22.8c2.3,10.2,12.5,16.6,22.8,14.3c0.4-0.1,0.8-0.2,1.2-0.3c35.1-8.1,71-12.3,107.1-12.7
			c54.2-1.6,107.7,12.5,154,40.6c8.6,6,20.5,3.9,26.5-4.7C440.1,416,438.4,404.6,430.5,398.5L430.5,398.5z"/>
	</g>
</g>
</svg>
