<?xml version="1.0" encoding="UTF-8"?>
<svg enable-background="new 0 0 600 600" version="1.1" viewBox="0 0 600 600" xml:space="preserve" xmlns="http://www.w3.org/2000/svg">
	<circle fill="#1ED760" cx="300.1" cy="300.3" r="300"/>
	<path fill="#FFFFFF" d="m504.3 208.1c-3.7-2.4-92.1-59.4-251.7-59.4-46.9-0.4-93.6 5.7-138.8 18.2l-2.2 0.6c-14.5 4.4-22.7 19.7-18.4 34.2 4.2 13.8 18.3 22 32.3 18.9l2.3-0.6c40.6-11.2 82.6-16.7 124.8-16.3 141.9 0 220.8 50 221.5 50.4 12.8 8.1 29.8 4.4 37.9-8.4 8-12.5 4.5-29.1-7.7-37.4v-0.2z"/>
	<path fill="#FFFFFF" d="m465.7 308.1c-67.1-38.1-143.3-57.1-220.4-54.9-38.8-0.4-77.4 4.7-114.8 15.1l-3.3 0.9c-13.1 3.1-21.1 16.2-18 29.3s16.2 21.1 29.3 18c0.4-0.1 0.8-0.2 1.1-0.3l3.4-0.9c33.3-9.3 67.8-13.8 102.3-13.4 67.5-1.8 134.3 14.4 193.6 46.8 11.4 7.1 26.4 3.6 33.5-7.8 6.8-11 3.8-25.3-6.7-32.8z"/>
	<path fill="#FFFFFF" d="m430.5 398.5c-52.7-33.3-114.3-50.1-176.6-48.1-39.3 0.4-78.5 5-116.8 13.8-10.2 2.3-16.6 12.5-14.3 22.8 2.3 10.2 12.5 16.6 22.8 14.3l1.2-0.3c35.1-8.1 71-12.3 107.1-12.7 54.2-1.6 107.7 12.5 154 40.6 8.6 6 20.5 3.9 26.5-4.7 5.7-8.2 4-19.6-3.9-25.7z"/>
</svg>
