<?xml version="1.0" encoding="UTF-8"?>
<svg enable-background="new 0 0 600 600" version="1.1" viewBox="0 0 600 600" xml:space="preserve" xmlns="http://www.w3.org/2000/svg">
<path d="m413.3 235.6c35.5 20.9 47.4 66.7 26.5 102.3-6.5 10.9-15.5 20-26.5 26.5l-301.1 177.4c-35.5 20.9-81.3 9.1-102.3-26.5-6.8-11.5-10.3-24.6-10.3-37.9v-354.9c0-41.2 33.4-74.7 74.7-74.7 13.4 0 26.5 3.5 38 10.3l301 177.5z"/>
<path d="m541.9 48.1c-32.1 0-58.1 26-58.1 58.1v387.7c0 32.1 26 58.1 58.1 58.1s58.1-26 58.1-58.1v-387.7c0-32.1-26-58.1-58.1-58.1z"/>
</svg>
