<?xml version="1.0" encoding="utf-8"?>
<svg version="1.1" id="Ebene_1" xmlns="http://www.w3.org/2000/svg" xmlns:xlink="http://www.w3.org/1999/xlink" x="0px" y="0px"
	 viewBox="0 0 600 600" style="enable-background:new 0 0 600 600;" xml:space="preserve">
<g>
	<path d="M205,0h-96c-5.52,0-10,4.48-10,10v580c0,5.52,4.48,10,10,10h96c5.52,0,10-4.48,10-10V10C215,4.48,210.52,0,205,0z"/>
	<path d="M492,0h-96c-5.52,0-10,4.48-10,10v580c0,5.52,4.48,10,10,10h96c5.52,0,10-4.48,10-10V10C502,4.48,497.52,0,492,0z"/>
</g>
</svg>
