<?xml version="1.0" encoding="UTF-8"?>
<svg enable-background="new 0 0 600 600" version="1.1" viewBox="0 0 600 600" xml:space="preserve" xmlns="http://www.w3.org/2000/svg">
<style type="text/css">
	.st0{fill:#FF6262;}
</style>
<path class="st0" d="m458.3 575.5-162.7-158.6-154 158.2c-32.3 32.3-84.6 32.3-116.9 0.1-32.3-32.3-32.3-84.6-0.1-116.9l154.3-158.3-154.3-158.2c-32.2-32.3-32.2-84.6 0.1-116.9s84.7-32.2 116.9 0.1l154 158.2 162.7-158.6c32.3-32.2 84.6-32.2 116.9 0.1 32.2 32.3 32.2 84.6-0.1 116.9l-162.6 158.6 162.6 158.6c32.4 32.1 32.6 84.5 0.4 116.9s-84.5 32.6-116.9 0.4l-0.4-0.4 0.1-0.2z"/>
</svg>
